<svg xmlns="http://www.w3.org/2000/svg" width="18" height="12">
    <path fill="#FFF" fill-rule="evenodd" d="M15.48 11.988l-1.296-1.199C15.43 9.545 16.2 7.859 16.2 5.995c0-1.862-.77-3.55-2.016-4.794L15.48.002C17.037 1.556 18 3.665 18 5.995c0 2.329-.963 4.438-2.52 5.993zM12.888 9.59L11.59 8.389a3.37 3.37 0 0 0 1.01-2.394c0-.93-.387-1.772-1.01-2.394L12.888 2.4c.935.933 1.512 2.198 1.512 3.595 0 1.396-.577 2.661-1.512 3.595zM9 7.725c-.994 0-1.8-.775-1.8-1.73 0-.956.806-1.73 1.8-1.73s1.8.774 1.8 1.73c0 .955-.806 1.73-1.8 1.73zm-2.596.658L5.106 9.584A5.06 5.06 0 0 1 3.6 5.995c0-1.395.575-2.656 1.506-3.59l1.298 1.203A3.367 3.367 0 0 0 5.4 5.995c0 .928.385 1.767 1.004 2.388zM1.8 5.995c0 1.861.767 3.543 2.01 4.788l-1.296 1.199C.96 10.427 0 8.321 0 5.995S.96 1.562 2.514.008L3.81 1.207C2.567 2.45 1.8 4.135 1.8 5.995z"/>
</svg>
